Coordinates
version=1
nRows=60
nColumns=12
inDegrees=yes

Units are S.I. units (second, meters, Newtons, ...)
Angles are in degrees

endheader
time	SC_y	SC_z	SC_x	AC_y	AC_z	AC_x	GH_y	GH_z	GH_yy	EL_x	PS_y
       0.0              -46.76          34.01          4.581          60.88         -8.266          12.16          97.79          57.63          4.923          135.2          22.74
   0.02816              -46.76           34.0          4.585          60.88         -8.265          12.16          97.76          57.63          4.922          135.2          22.75
   0.05633              -46.76           34.0          4.589          60.87         -8.263          12.16          97.72          57.63          4.922          135.2          22.75
   0.08449              -46.76          33.99          4.593          60.87         -8.262          12.16          97.68          57.63          4.921          135.2          22.76
    0.1127              -46.75          33.99          4.597          60.87          -8.26          12.16          97.64          57.63           4.92          135.2          22.77
    0.1408              -46.75          33.98          4.602          60.86         -8.258          12.16          97.59          57.63          4.919          135.2          22.77
     0.169              -46.75          33.97          4.607          60.86         -8.256          12.17          97.55          57.63          4.918          135.2          22.78
    0.1971              -46.75          33.96          4.612          60.86         -8.254          12.17          97.49          57.63          4.917          135.2          22.79
    0.2253              -46.75          33.96          4.618          60.85         -8.252          12.17          97.44          57.63          4.916          135.2           22.8
    0.2535              -46.75          33.95          4.624          60.85         -8.249          12.17          97.38          57.63          4.915          135.1          22.81
    0.2816              -46.75          33.94           4.63          60.85         -8.246          12.17          97.32          57.62          4.913          135.1          22.82
    0.3098              -46.75          33.93          4.637          60.84         -8.244          12.17          97.25          57.62          4.912          135.1          22.83
     0.338              -46.74          33.92          4.645          60.84         -8.241          12.18          97.18          57.62           4.91          135.1          22.85
    0.3661              -46.74           33.9          4.653          60.83         -8.237          12.18           97.1          57.62          4.909          135.1          22.86
    0.3943              -46.74          33.89          4.662          60.83         -8.234          12.18          97.01          57.62          4.907          135.1          22.87
    0.4224              -46.74          33.88          4.672          60.82          -8.23          12.18          96.92          57.62          4.905          135.0          22.89
    0.4506              -46.74          33.86          4.682          60.81         -8.226          12.19          96.82          57.62          4.903          135.0          22.91
    0.4788              -46.73          33.85          4.693          60.81         -8.221          12.19          96.71          57.61          4.901          135.0          22.93
    0.5069              -46.73          33.83          4.706           60.8         -8.216          12.19          96.59          57.61          4.898          135.0          22.95
    0.5351              -46.73          33.81           4.72          60.79         -8.211           12.2          96.46          57.61          4.896          134.9          22.97
    0.5633              -46.72          33.79          4.734          60.78         -8.204           12.2          96.31          57.61          4.893          134.9          22.99
    0.5914              -46.72          33.76          4.751          60.77         -8.198          12.21          96.16           57.6           4.89          134.9          23.02
    0.6196              -46.72          33.73          4.769          60.76         -8.191          12.21          95.98           57.6          4.886          134.8          23.05
    0.6477              -46.71          33.71          4.789          60.74         -8.182          12.22          95.79           57.6          4.882          134.8          23.08
    0.6759              -46.71          33.67          4.812          60.73         -8.173          12.22          95.57          57.59          4.878          134.7          23.12
    0.7041               -46.7          33.64          4.837          60.71         -8.163          12.23          95.33          57.59          4.873          134.7          23.16
    0.7322               -46.7           33.6          4.865           60.7         -8.152          12.24          95.06          57.58          4.867          134.6          23.21
    0.7604              -46.69          33.55          4.896          60.68         -8.139          12.25          94.76          57.58          4.861          134.5          23.26
    0.7886              -46.68           33.5          4.932          60.65         -8.125          12.26          94.41          57.57          4.854          134.5          23.32
    0.8167              -46.67          33.44          4.972          60.63         -8.109          12.27          94.03          57.56          4.846          134.4          23.39
    0.8449              -46.66          33.37          5.018           60.6          -8.09          12.28          93.58          57.56          4.837          134.3          23.46
     0.873              -46.65          33.29          5.071          60.57         -8.069          12.29          93.07          57.55          4.827          134.2          23.55
    0.9012              -46.64           33.2          5.133          60.53         -8.044          12.31          92.48          57.54          4.815          134.0          23.65
    0.9294              -46.62           33.1          5.204          60.48         -8.016          12.33           91.8          57.52          4.801          133.9          23.77
    0.9575              -46.61          32.98          5.287          60.43         -7.982          12.35           91.0          57.51          4.784          133.7           23.9
    0.9857              -46.59          32.84          5.385          60.37         -7.943          12.38          90.06          57.49          4.765          133.5          24.06
     1.014              -46.56          32.67          5.501          60.29         -7.896          12.41          88.94          57.47          4.742          133.2          24.26
     1.042              -46.53          32.46          5.641           60.2          -7.84          12.45          87.59          57.45          4.715          132.9          24.49
      1.07               -46.5          32.22           5.81           60.1         -7.772           12.5          85.97          57.42          4.682          132.5          24.77
     1.098              -46.45          31.92          6.016          59.96         -7.689          12.55          83.98          57.38          4.641          132.1           25.1
     1.127               -46.4          31.55          6.271           59.8         -7.587          12.62          81.53          57.34          4.591          131.5          25.52
     1.155              -46.33          31.08          6.588           59.6         -7.459          12.71          78.48          57.28          4.529          130.8          26.05
     1.183              -46.24           30.5          6.988          59.35         -7.298          12.82          74.63          57.21           4.45          129.9          26.71
     1.211              -46.14          29.76          7.496          59.02         -7.094          12.96          69.74          57.12           4.35          128.8          27.54
     1.239               -46.0          28.81          8.147          58.61         -6.832          13.14          63.47          57.01          4.223          127.3          28.62
     1.267              -45.82          27.59          8.982          58.08         -6.496          13.37          55.44          56.86          4.059          125.5          29.99
     1.295              -45.59          26.03          10.05           57.4         -6.067          13.66          45.17          56.67          3.849          123.1          31.75
     1.324               -45.3          24.08          11.39          56.55         -5.528          14.03          32.26          56.44          3.586          120.1          33.96
     1.352              -44.96          21.69          13.03          55.51         -4.871          14.48          16.53          56.15          3.265          116.5          36.65
      1.38              -44.55          18.93          14.92           54.3         -4.109           15.0         -1.699          55.82          2.892          112.3          39.78
     1.408              -44.11          15.94          16.97           53.0         -3.284          15.56         -21.44          55.45          2.489          107.7          43.16
     1.436              -43.68          12.95          19.02          51.69         -2.459          16.12         -41.18          55.09          2.087          103.2          46.54
     1.464              -43.27          10.18          20.92          50.49         -1.697          16.64         -59.42          54.76          1.714          98.98          49.66
     1.493              -42.92          7.799          22.55          49.45          -1.04          17.09         -75.15          54.47          1.393          95.35          52.35
     1.521              -42.64          5.843          23.89          48.59        -0.5007          17.46         -88.05          54.24           1.13          92.37          54.56
     1.549              -42.41          4.287          24.96          47.91       -0.07174          17.75         -98.32          54.05         0.9204          90.01          56.32
     1.577              -42.23          3.069           25.8          47.38         0.2641          17.98         -106.4           53.9         0.7564          88.15           57.7
     1.605              -42.09           2.12          26.45          46.97         0.5258          18.16         -112.6          53.79         0.6286          86.71          58.77
     1.633              -41.98          1.378          26.95          46.64         0.7302           18.3         -117.5           53.7         0.5287          85.58          59.61
     1.662               -41.9          0.795          27.35          46.39          0.891          18.41         -121.4          53.63         0.4501          84.69          60.26
